# Blender v3.5.0 OBJ File: '就職作品.blend'
# www.blender.org
mtllib WoodenBox.mtl
o box.001_Cube.009
v 1.000000 1.000000 -1.000000
v 1.000000 -1.000000 -1.000000
v 1.000000 1.000000 1.000000
v 1.000000 -1.000000 1.000000
v -1.000000 1.000000 -1.000000
v -1.000000 -1.000000 -1.000000
v -1.000000 1.000000 1.000000
v -1.000000 -1.000000 1.000000
vt 2.024361 0.010138
vt 1.008120 0.994570
vt 1.008120 0.010138
vt -0.008120 1.979002
vt -0.008120 0.994570
vt 1.008120 -1.958726
vt -0.008120 -0.974294
vt -0.008120 -1.958726
vt -0.008120 0.010138
vt -1.024361 0.994570
vt -1.024361 0.010138
vt 1.008120 -0.974294
vt 2.024361 0.994570
vt 1.008120 1.979002
vn 0.0000 1.0000 -0.0000
vn 0.0000 0.0000 1.0000
vn -1.0000 0.0000 0.0000
vn 0.0000 -1.0000 0.0000
vn 1.0000 0.0000 0.0000
vn 0.0000 -0.0000 -1.0000
usemtl Material.009
s off
f 5/1/1 3/2/1 1/3/1
f 3/2/2 8/4/2 4/5/2
f 7/6/3 6/7/3 8/8/3
f 2/9/4 8/10/4 6/11/4
f 1/3/5 4/5/5 2/9/5
f 5/12/6 2/9/6 6/7/6
f 5/1/1 7/13/1 3/2/1
f 3/2/2 7/14/2 8/4/2
f 7/6/3 5/12/3 6/7/3
f 2/9/4 4/5/4 8/10/4
f 1/3/5 3/2/5 4/5/5
f 5/12/6 1/3/6 2/9/6
