# Blender v3.1.2 OBJ File: ''
# www.blender.org
mtllib Hmodel.mtl
o Cube.002_Cube.006
v 0.277264 0.447169 -0.124223
v 0.277264 0.061403 -0.185987
v 0.277264 0.447169 -0.185987
v -0.268497 0.061403 -0.124223
v -0.268497 0.061403 -0.185987
v 0.277264 0.061403 -0.124223
v -0.268497 0.447169 -0.124223
v -0.268497 0.447169 -0.185987
v 0.277264 0.447169 0.191268
v 0.277264 0.061403 0.129504
v 0.277264 0.447169 0.129504
v -0.268497 0.061403 0.191268
v -0.268497 0.061403 0.129504
v 0.277264 0.061403 0.191268
v -0.268497 0.447169 0.191268
v -0.268497 0.447169 0.129504
v 0.257937 0.264730 -0.185756
v 0.257937 0.208592 0.187903
v 0.257937 0.204996 -0.185180
v -0.269905 0.268326 0.187327
v -0.269905 0.208592 0.187903
v 0.257937 0.268326 0.187327
v -0.269905 0.264730 -0.185756
v -0.269905 0.204996 -0.185180
vt 0.875000 0.500000
vt 0.625000 0.750000
vt 0.625000 0.500000
vt 0.375000 1.000000
vt 0.375000 0.750000
vt 0.625000 0.000000
vt 0.375000 0.250000
vt 0.375000 0.000000
vt 0.375000 0.500000
vt 0.125000 0.750000
vt 0.125000 0.500000
vt 0.625000 0.250000
vt 0.875000 0.750000
vt 0.625000 1.000000
vt 0.875000 0.500000
vt 0.625000 0.750000
vt 0.625000 0.500000
vt 0.375000 1.000000
vt 0.375000 0.750000
vt 0.625000 0.000000
vt 0.375000 0.250000
vt 0.375000 0.000000
vt 0.375000 0.500000
vt 0.125000 0.750000
vt 0.125000 0.500000
vt 0.625000 0.250000
vt 0.875000 0.750000
vt 0.625000 1.000000
vt 0.875000 0.500000
vt 0.625000 0.750000
vt 0.625000 0.500000
vt 0.375000 1.000000
vt 0.375000 0.750000
vt 0.625000 0.000000
vt 0.375000 0.250000
vt 0.375000 0.000000
vt 0.375000 0.500000
vt 0.125000 0.750000
vt 0.125000 0.500000
vt 0.625000 0.250000
vt 0.875000 0.750000
vt 0.625000 1.000000
vn 1.0000 -0.0000 0.0000
vn 0.0000 -1.0000 0.0000
vn 0.0000 -0.0000 1.0000
vn -1.0000 0.0000 0.0000
vn -0.0000 0.0000 -1.0000
vn 0.0000 1.0000 0.0000
vn 0.0000 0.0096 1.0000
vn -0.0000 1.0000 -0.0096
vn 0.0000 -1.0000 0.0096
vn -0.0000 -0.0096 -1.0000
usemtl Material.006
s 1
f 1/1/1 2/2/1 3/3/1
f 2/2/2 4/4/2 5/5/2
f 6/6/3 7/7/3 4/8/3
f 8/9/4 4/10/4 7/11/4
f 3/3/5 5/5/5 8/9/5
f 1/12/6 8/9/6 7/7/6
f 1/1/1 6/13/1 2/2/1
f 2/2/2 6/14/2 4/4/2
f 6/6/3 1/12/3 7/7/3
f 8/9/4 5/5/4 4/10/4
f 3/3/5 2/2/5 5/5/5
f 1/12/6 3/3/6 8/9/6
usemtl Material.007
f 9/15/1 10/16/1 11/17/1
f 10/16/2 12/18/2 13/19/2
f 14/20/3 15/21/3 12/22/3
f 16/23/4 12/24/4 15/25/4
f 11/17/5 13/19/5 16/23/5
f 9/26/6 16/23/6 15/21/6
f 9/15/1 14/27/1 10/16/1
f 10/16/2 14/28/2 12/18/2
f 14/20/3 9/26/3 15/21/3
f 16/23/4 13/19/4 12/24/4
f 11/17/5 10/16/5 13/19/5
f 9/26/6 11/17/6 16/23/6
usemtl Material.008
f 17/29/1 18/30/1 19/31/1
f 18/30/7 20/32/7 21/33/7
f 22/34/8 23/35/8 20/36/8
f 24/37/4 20/38/4 23/39/4
f 19/31/9 21/33/9 24/37/9
f 17/40/10 24/37/10 23/35/10
f 17/29/1 22/41/1 18/30/1
f 18/30/7 22/42/7 20/32/7
f 22/34/8 17/40/8 23/35/8
f 24/37/4 21/33/4 20/38/4
f 19/31/9 18/30/9 21/33/9
f 17/40/10 19/31/10 24/37/10
o Cube.002_Cube.001
v 0.124223 0.521909 -0.192883
v 0.185987 0.521909 0.192883
v 0.185987 0.521909 -0.192883
v 0.124223 -0.023852 0.192883
v 0.185987 -0.023852 0.192883
v 0.124223 0.521909 0.192883
v 0.124223 -0.023852 -0.192883
v 0.185987 -0.023852 -0.192883
v -0.191268 0.521909 -0.192883
v -0.129504 0.521909 0.192883
v -0.129504 0.521909 -0.192883
v -0.191268 -0.023852 0.192883
v -0.129504 -0.023852 0.192883
v -0.191268 0.521909 0.192883
v -0.191268 -0.023852 -0.192883
v -0.129504 -0.023852 -0.192883
v 0.185756 0.502582 -0.010444
v -0.187903 0.502582 0.045694
v 0.185180 0.502582 0.049290
v -0.187327 -0.025260 -0.014040
v -0.187903 -0.025260 0.045694
v -0.187327 0.502582 -0.014040
v 0.185756 -0.025260 -0.010444
v 0.185180 -0.025260 0.049290
vt 0.875000 0.500000
vt 0.625000 0.750000
vt 0.625000 0.500000
vt 0.375000 1.000000
vt 0.375000 0.750000
vt 0.625000 0.000000
vt 0.375000 0.250000
vt 0.375000 0.000000
vt 0.375000 0.500000
vt 0.125000 0.750000
vt 0.125000 0.500000
vt 0.625000 0.250000
vt 0.875000 0.750000
vt 0.625000 1.000000
vt 0.875000 0.500000
vt 0.625000 0.750000
vt 0.625000 0.500000
vt 0.375000 1.000000
vt 0.375000 0.750000
vt 0.625000 0.000000
vt 0.375000 0.250000
vt 0.375000 0.000000
vt 0.375000 0.500000
vt 0.125000 0.750000
vt 0.125000 0.500000
vt 0.625000 0.250000
vt 0.875000 0.750000
vt 0.625000 1.000000
vt 0.875000 0.500000
vt 0.625000 0.750000
vt 0.625000 0.500000
vt 0.375000 1.000000
vt 0.375000 0.750000
vt 0.625000 0.000000
vt 0.375000 0.250000
vt 0.375000 0.000000
vt 0.375000 0.500000
vt 0.125000 0.750000
vt 0.125000 0.500000
vt 0.625000 0.250000
vt 0.875000 0.750000
vt 0.625000 1.000000
vn 0.0000 1.0000 0.0000
vn 0.0000 -0.0000 1.0000
vn -1.0000 -0.0000 0.0000
vn 0.0000 -1.0000 -0.0000
vn 1.0000 0.0000 0.0000
vn 0.0000 0.0000 -1.0000
vn -1.0000 0.0000 -0.0096
vn 0.0096 0.0000 -1.0000
vn -0.0096 -0.0000 1.0000
vn 1.0000 0.0000 0.0096
usemtl Material.003
s 1
f 25/43/11 26/44/11 27/45/11
f 26/44/12 28/46/12 29/47/12
f 30/48/13 31/49/13 28/50/13
f 32/51/14 28/52/14 31/53/14
f 27/45/15 29/47/15 32/51/15
f 25/54/16 32/51/16 31/49/16
f 25/43/11 30/55/11 26/44/11
f 26/44/12 30/56/12 28/46/12
f 30/48/13 25/54/13 31/49/13
f 32/51/14 29/47/14 28/52/14
f 27/45/15 26/44/15 29/47/15
f 25/54/16 27/45/16 32/51/16
usemtl Material.004
f 33/57/11 34/58/11 35/59/11
f 34/58/12 36/60/12 37/61/12
f 38/62/13 39/63/13 36/64/13
f 40/65/14 36/66/14 39/67/14
f 35/59/15 37/61/15 40/65/15
f 33/68/16 40/65/16 39/63/16
f 33/57/11 38/69/11 34/58/11
f 34/58/12 38/70/12 36/60/12
f 38/62/13 33/68/13 39/63/13
f 40/65/14 37/61/14 36/66/14
f 35/59/15 34/58/15 37/61/15
f 33/68/16 35/59/16 40/65/16
usemtl Material.005
f 41/71/11 42/72/11 43/73/11
f 42/72/17 44/74/17 45/75/17
f 46/76/18 47/77/18 44/78/18
f 48/79/14 44/80/14 47/81/14
f 43/73/19 45/75/19 48/79/19
f 41/82/20 48/79/20 47/77/20
f 41/71/11 46/83/11 42/72/11
f 42/72/17 46/84/17 44/74/17
f 46/76/18 41/82/18 47/77/18
f 48/79/14 45/75/14 44/80/14
f 43/73/19 42/72/19 45/75/19
f 41/82/20 43/73/20 48/79/20
o Cube.002_Cube.002_Cube.002_Cube.003
v 0.130165 0.447169 0.268457
v 0.191928 0.061403 0.268914
v 0.191928 0.447169 0.268914
v 0.134201 0.061403 -0.277289
v 0.195963 0.061403 -0.276832
v 0.130165 0.061403 0.268457
v 0.134201 0.447169 -0.277289
v 0.195963 0.447169 -0.276832
v -0.185317 0.447169 0.266124
v -0.123555 0.061403 0.266581
v -0.123555 0.447169 0.266581
v -0.181282 0.061403 -0.279622
v -0.119519 0.061403 -0.279165
v -0.185317 0.061403 0.266124
v -0.181282 0.447169 -0.279622
v -0.119519 0.447169 -0.279165
v 0.191840 0.264730 0.249586
v -0.181809 0.208592 0.246823
v 0.191264 0.204996 0.249581
v -0.177330 0.268326 -0.281001
v -0.177906 0.208592 -0.281005
v -0.181233 0.268326 0.246827
v 0.195742 0.264730 -0.278242
v 0.195166 0.204996 -0.278246
vt 0.875000 0.500000
vt 0.625000 0.750000
vt 0.625000 0.500000
vt 0.375000 1.000000
vt 0.375000 0.750000
vt 0.625000 0.000000
vt 0.375000 0.250000
vt 0.375000 0.000000
vt 0.375000 0.500000
vt 0.125000 0.750000
vt 0.125000 0.500000
vt 0.625000 0.250000
vt 0.875000 0.750000
vt 0.625000 1.000000
vt 0.875000 0.500000
vt 0.625000 0.750000
vt 0.625000 0.500000
vt 0.375000 1.000000
vt 0.375000 0.750000
vt 0.625000 0.000000
vt 0.375000 0.250000
vt 0.375000 0.000000
vt 0.375000 0.500000
vt 0.125000 0.750000
vt 0.125000 0.500000
vt 0.625000 0.250000
vt 0.875000 0.750000
vt 0.625000 1.000000
vt 0.875000 0.500000
vt 0.625000 0.750000
vt 0.625000 0.500000
vt 0.375000 1.000000
vt 0.375000 0.750000
vt 0.625000 0.000000
vt 0.375000 0.250000
vt 0.375000 0.000000
vt 0.375000 0.500000
vt 0.125000 0.750000
vt 0.125000 0.500000
vt 0.625000 0.250000
vt 0.875000 0.750000
vt 0.625000 1.000000
vn -0.0074 -0.0000 1.0000
vn 0.0000 -1.0000 0.0000
vn -1.0000 -0.0000 -0.0074
vn 0.0074 0.0000 -1.0000
vn 1.0000 0.0000 0.0074
vn -0.0000 1.0000 -0.0000
vn -0.9999 0.0096 -0.0074
vn 0.0096 1.0000 0.0001
vn -0.0096 -1.0000 -0.0001
vn 0.9999 -0.0096 0.0074
usemtl Material.012
s 1
f 49/85/21 50/86/21 51/87/21
f 50/86/22 52/88/22 53/89/22
f 54/90/23 55/91/23 52/92/23
f 56/93/24 52/94/24 55/95/24
f 51/87/25 53/89/25 56/93/25
f 49/96/26 56/93/26 55/91/26
f 49/85/21 54/97/21 50/86/21
f 50/86/22 54/98/22 52/88/22
f 54/90/23 49/96/23 55/91/23
f 56/93/24 53/89/24 52/94/24
f 51/87/25 50/86/25 53/89/25
f 49/96/26 51/87/26 56/93/26
usemtl Material.013
f 57/99/21 58/100/21 59/101/21
f 58/100/22 60/102/22 61/103/22
f 62/104/23 63/105/23 60/106/23
f 64/107/24 60/108/24 63/109/24
f 59/101/25 61/103/25 64/107/25
f 57/110/26 64/107/26 63/105/26
f 57/99/21 62/111/21 58/100/21
f 58/100/22 62/112/22 60/102/22
f 62/104/23 57/110/23 63/105/23
f 64/107/24 61/103/24 60/108/24
f 59/101/25 58/100/25 61/103/25
f 57/110/26 59/101/26 64/107/26
usemtl Material.014
f 65/113/21 66/114/21 67/115/21
f 66/114/27 68/116/27 69/117/27
f 70/118/28 71/119/28 68/120/28
f 72/121/24 68/122/24 71/123/24
f 67/115/29 69/117/29 72/121/29
f 65/124/30 72/121/30 71/119/30
f 65/113/21 70/125/21 66/114/21
f 66/114/27 70/126/27 68/116/27
f 70/118/28 65/124/28 71/119/28
f 72/121/24 69/117/24 68/122/24
f 67/115/29 66/114/29 69/117/29
f 65/124/30 67/115/30 72/121/30
